<?xml version="1.0" encoding="UTF-8"?>
<svg id="Layer_2" data-name="Layer 2" xmlns="http://www.w3.org/2000/svg" viewBox="0 0 87.63 154.09">
  <defs>
    <style>
      .cls-1 {
        fill: #fff;
        stroke-width: 0px;
      }
    </style>
  </defs>
  <g id="Layer_1-2" data-name="Layer 1">
    <path class="cls-1" d="M61.73,52.02c5.68,0,11.19.03,16.7-.01,2.84-.02,5.37.74,6.83,3.26.82,1.41,1.38,3.17,1.41,4.78.14,7.62.09,15.24.05,22.86-.02,4.77-3.15,7.91-7.94,7.95-5.11.05-10.23.01-15.34.01-.55,0-1.09,0-1.85,0,0,.74,0,1.38,0,2.02,0,17.49.02,34.99-.03,52.48,0,1.42-.15,2.96-.7,4.24-1.28,3.01-3.78,4.45-7.04,4.46-8.02.03-16.05.03-24.07,0-4.53-.02-7.54-2.9-7.83-7.4-.04-.6-.03-1.2-.03-1.8,0-17.29,0-34.59,0-51.88,0-.64,0-1.28,0-2.11-.68,0-1.22,0-1.75,0-4.01,0-8.02.02-12.03,0-5-.03-8.08-3.08-8.1-8.06-.03-7.62-.03-15.24,0-22.86.02-4.85,3.03-7.87,7.88-7.92,4.06-.05,8.12-.01,12.19-.01.54,0,1.08,0,1.82,0,0-.8-.02-1.44,0-2.07.23-6.15-.07-12.38.82-18.44,1.73-11.84,7.73-21.14,18.45-26.98C46.4,1.69,52,.09,57.99.07c7.52-.03,15.05.11,22.56-.06,2.99-.07,6.1,2.46,6.76,5.35.2.87.29,1.78.3,2.68.02,6.87.02,13.73,0,20.6,0,5.24-3.06,8.28-8.33,8.32-4.46.04-8.92.05-13.39.09-.45,0-.9.03-1.35.11-2.24.4-2.75.85-2.8,3.16-.09,3.84-.02,7.69-.02,11.72ZM9.13,81.83c.73,0,1.28,0,1.83,0,4.86,0,9.73-.02,14.59,0,3.35.02,5.28,1.94,5.41,5.31.02.45,0,.9,0,1.35,0,18.2,0,36.39,0,54.59v1.86h21.56c0-.73,0-1.37,0-2.01,0-18.35,0-36.7,0-55.04,0-4.25,1.82-6.07,6.02-6.08,5.82,0,11.63,0,17.45,0h1.61v-20.76c-.63,0-1.17,0-1.71,0-5.92,0-11.84.02-17.75,0-3.3-.02-5.49-1.77-5.54-4.87-.1-5.71-.19-11.44.22-17.13.45-6.32,3.94-9.95,10.21-10.69,4.36-.52,8.8-.34,13.2-.46.74-.02,1.48,0,2.27,0V8.97c-.21-.07-.35-.15-.48-.15-6.47.02-12.94-.14-19.4.12-6.67.27-12.81,2.31-17.92,6.8-6.47,5.68-9.19,13.13-9.58,21.47-.28,5.85-.12,11.73-.14,17.59-.02,4.39-1.85,6.25-6.19,6.26-4.06,0-8.12,0-12.19,0-1.14,0-2.27,0-3.46,0v20.76Z"/>
  </g>
</svg>