<?xml version="1.0" encoding="UTF-8"?>
<svg id="Layer_2" data-name="Layer 2" xmlns="http://www.w3.org/2000/svg" viewBox="0 0 132.45 132.72">
  <defs>
    <style>
      .cls-1 {
        fill: #fff;
        stroke-width: 0px;
      }
    </style>
  </defs>
  <g id="Layer_1-2" data-name="Layer 1">
    <g>
      <path class="cls-1" d="M0,132.72c2.41-8.83,4.75-17.39,7.09-25.95.64-2.35,1.33-4.69,1.9-7.06.14-.6.08-1.4-.21-1.93C2.57,86.51-.27,74.42.7,61.62,2.33,40.05,12.26,23.07,30.15,10.95,42.08,2.86,55.46-.87,69.82.17c26.01,1.88,45.27,14.66,56.15,38.27,10.62,23.03,8.06,45.61-6.74,66.28-10.63,14.84-25.42,23.5-43.52,26.21-14,2.09-27.31-.32-39.91-6.76-.58-.29-1.43-.35-2.06-.19-10.74,2.77-21.46,5.59-32.19,8.39-.43.11-.87.2-1.55.36ZM15.79,117.09c.41-.08.59-.1.76-.14,6.05-1.59,12.11-3.15,18.15-4.8,1.24-.34,2.22-.2,3.35.47,12.15,7.24,25.24,9.63,39.07,6.79,29.26-5.99,48.04-33.65,43.03-63.07-4.25-24.97-25.82-44.09-51.06-45.15-13.96-.59-26.5,3.41-37.3,12.3-12.33,10.16-19.06,23.35-20.05,39.31-.73,11.75,2.23,22.64,8.58,32.57.73,1.15.88,2.13.51,3.44-1.72,6.01-3.33,12.05-5.04,18.27Z"/>
      <path class="cls-1" d="M44.99,35.52c2.92-.76,4.28,1.06,5.28,3.67,1.47,3.82,3.09,7.58,4.7,11.35.54,1.27.53,2.41-.29,3.51-1.32,1.77-2.6,3.57-4,5.29-.88,1.08-1.01,2.05-.3,3.26,5.37,9.08,12.89,15.63,22.71,19.54,1.28.51,2.33.31,3.2-.77,1.67-2.08,3.41-4.11,5.02-6.25.93-1.24,2.02-1.62,3.35-.99,4.66,2.18,9.32,4.38,13.92,6.7.56.28,1.04,1.33,1.03,2.02-.12,6.98-2.17,10.34-9.67,13.48-4.24,1.78-8.64,1.34-13,.12-15.8-4.4-27.45-14.34-36.78-27.42-2.93-4.11-5.58-8.36-6.7-13.36-1.59-7.12.17-13.3,5.42-18.44,1.66-1.63,3.67-1.98,6.1-1.7Z"/>
    </g>
  </g>
</svg>