<?xml version="1.0" encoding="UTF-8"?>
<svg id="Layer_2" data-name="Layer 2" xmlns="http://www.w3.org/2000/svg" viewBox="0 0 131.63 131.61">
  <defs>
    <style>
      .cls-1 {
        fill: #fff;
        stroke-width: 0px;
      }
    </style>
  </defs>
  <g id="Layer_1-2" data-name="Layer 1">
    <g>
      <path class="cls-1" d="M82.49,131.61h-39.32c-.59-.07-1.18-.15-1.77-.21-3.95-.45-7.94-.64-11.83-1.39-10.46-2-18.65-7.43-23.99-16.79-3.34-5.85-4.52-12.31-5.07-18.92-.19-2.21-.34-4.41-.51-6.62,0-14.82,0-29.63,0-44.45.07-.63.15-1.26.22-1.89.44-3.91.66-7.85,1.37-11.71C3.24,20.49,7.73,13.01,15.33,7.54,21.83,2.85,29.29.96,37.15.6,54.82-.21,72.5-.12,90.18.41c4.38.13,8.82.6,13.1,1.52,9.82,2.1,17.65,7.25,22.62,16.21,3.28,5.91,4.83,12.35,5.13,19.03.81,17.71.73,35.43.18,53.15-.13,4.3-.55,8.66-1.52,12.84-3.24,14.08-11.92,23.06-26.04,26.55-5.35,1.32-10.83,1.54-16.31,1.67-1.62.04-3.24.15-4.86.23ZM119.49,63.94c.06,0,.11,0,.17,0,0-4.88.15-9.77-.04-14.64-.23-5.76-.38-11.57-1.24-17.26-1.27-8.33-5.82-14.39-13.98-17.36-4.39-1.6-8.95-2.38-13.58-2.5-9.11-.25-18.23-.35-27.34-.41-6.51-.04-13.02.05-19.53.16-4.84.08-9.67.29-14.39,1.53-7.97,2.08-13.28,6.93-15.71,14.87-1.72,5.63-2.17,11.44-2.21,17.26-.1,13.83-.15,27.66,0,41.49.05,4.21.45,8.49,1.29,12.62,2.07,10.2,8.21,16.68,18.6,18.53,4.28.76,8.66,1.2,13.01,1.27,12.5.21,25.01.29,37.51.16,5.72-.06,11.48-.39,17.14-1.23,10.04-1.47,16.82-7.91,18.87-17.61.81-3.83,1.27-7.79,1.37-11.7.2-8.39.06-16.78.06-25.17Z"/>
      <path class="cls-1" d="M65.8,32.07c18.66,0,33.69,15.01,33.75,33.7.06,18.66-15.09,33.8-33.8,33.77-18.66-.03-33.7-15.09-33.68-33.75.02-18.66,15.07-33.71,33.72-33.72ZM65.8,43.93c-12.12,0-21.87,9.74-21.88,21.86,0,12.12,9.73,21.89,21.83,21.91,12.19.02,21.98-9.76,21.94-21.93-.03-12.14-9.76-21.84-21.89-21.84Z"/>
      <path class="cls-1" d="M100.89,22.87c4.37,0,7.84,3.42,7.87,7.78.04,4.41-3.45,7.95-7.84,7.96-4.32,0-7.87-3.49-7.89-7.8-.03-4.41,3.46-7.93,7.86-7.94Z"/>
    </g>
  </g>
</svg>