<?xml version="1.0" encoding="UTF-8"?>
<svg id="Layer_2" data-name="Layer 2" height="28px" width="28px" xmlns="http://www.w3.org/2000/svg" viewBox="0 0 135.01 97.42">
  <defs>
    <style>
      .cls-1 {
        fill: #796864;
        stroke-width: 0px;
      }
    </style>
  </defs>
  <g id="Layer_1-2" data-name="Layer 1">
    <g>
      <path class="cls-1" d="M0,0c.57.03,1.14.09,1.71.09,19.99,0,39.99,0,59.98,0h1.85c0,.68,0,1.2,0,1.71,0,20.13,0,40.26.02,60.39,0,1.07-.31,1.76-1.14,2.45-12.74,10.65-25.44,21.34-38.15,32.01-.26.22-.54.43-.95.76-.06-.46-.13-.77-.14-1.09-.02-.88.08-1.77-.02-2.64-.57-4.82.74-9.11,3.05-13.33,2.7-4.93,4.99-10.09,7.46-15.15.21-.43.41-.87.66-1.41-.22-.05-.37-.12-.52-.12-11.27,0-22.55.02-33.82.03V0Z"/>
      <path class="cls-1" d="M83.53,63.71V12.26h51.47v1.4c0,16.25,0,32.5,0,48.75,0,.78-.12,1.38-.79,1.94-10.37,8.67-20.71,17.37-31.06,26.06-.2.17-.42.31-.91.68,0-1.02.07-1.83-.01-2.61-.45-4.17.58-7.91,2.62-11.58,2.34-4.21,4.28-8.65,6.49-13.19h-27.81Z"/>
    </g>
  </g>
</svg>